<svg xmlns="http://www.w3.org/2000/svg" width="9.363" height="10.7" viewBox="0 0 9.363 10.7"><defs><style>.a{fill:#00c8c8;}</style></defs><path class="a" d="M0,9.7a1,1,0,0,0,1,1H8.36a1,1,0,0,0,1-1V4.013H0ZM6.688,5.6a.252.252,0,0,1,.251-.251h.836a.252.252,0,0,1,.251.251v.836a.252.252,0,0,1-.251.251H6.939a.252.252,0,0,1-.251-.251Zm0,2.675a.252.252,0,0,1,.251-.251h.836a.252.252,0,0,1,.251.251v.836a.252.252,0,0,1-.251.251H6.939a.252.252,0,0,1-.251-.251ZM4.013,5.6a.252.252,0,0,1,.251-.251H5.1A.252.252,0,0,1,5.35,5.6v.836a.252.252,0,0,1-.251.251H4.263a.252.252,0,0,1-.251-.251Zm0,2.675a.252.252,0,0,1,.251-.251H5.1a.252.252,0,0,1,.251.251v.836a.252.252,0,0,1-.251.251H4.263a.252.252,0,0,1-.251-.251ZM1.338,5.6a.252.252,0,0,1,.251-.251h.836a.252.252,0,0,1,.251.251v.836a.252.252,0,0,1-.251.251H1.588a.252.252,0,0,1-.251-.251Zm0,2.675a.252.252,0,0,1,.251-.251h.836a.252.252,0,0,1,.251.251v.836a.252.252,0,0,1-.251.251H1.588a.252.252,0,0,1-.251-.251ZM8.36,1.338h-1v-1A.335.335,0,0,0,7.022,0H6.353a.335.335,0,0,0-.334.334v1H3.344v-1A.335.335,0,0,0,3.009,0H2.341a.335.335,0,0,0-.334.334v1H1a1,1,0,0,0-1,1v1H9.363v-1A1,1,0,0,0,8.36,1.338Z"/></svg>