    <svg xmlns="http://www.w3.org/2000/svg" viewBox="0 0 281 93.17">
    <title>Imaggo</title>
    <g id="Warstwa_2" data-name="Warstwa 2">
        <g id="Warstwa_1-2" data-name="Warstwa 1">
            <rect class="cls-1" width="8.34" height="8.33"></rect>
            <rect class="cls-1" y="16.65" width="8.34" height="41.1"></rect>
            <path class="cls-2"
                d="M140.38,57.76H132.8V54.34a20.27,20.27,0,0,1-6,3.37,22,22,0,0,1-7.41,1.21,21.77,21.77,0,0,1-8.24-1.53,20.78,20.78,0,0,1-6.86-4.59A20.53,20.53,0,0,1,99.68,46a21.69,21.69,0,0,1-1.54-8.23,21.65,21.65,0,0,1,1.54-8.23,20.53,20.53,0,0,1,4.63-6.83,20.81,20.81,0,0,1,6.86-4.6,23,23,0,0,1,16.48,0,21.61,21.61,0,0,1,11.49,11.43,21.46,21.46,0,0,1,1.54,8.23c0,.36,0,.73,0,1.11s0,.71-.07,1.07V57.76ZM128.78,28.2a13.18,13.18,0,0,0-4.29-3,13.53,13.53,0,0,0-10.16,0,13.18,13.18,0,0,0-4.29,3,13.07,13.07,0,0,0-3.9,9.54,13.33,13.33,0,0,0,1,5.11A13.86,13.86,0,0,0,110,47.24a13.28,13.28,0,0,0,4.29,3,13.4,13.4,0,0,0,10.16,0,13.28,13.28,0,0,0,4.29-3,13.9,13.9,0,0,0,2.93-4.39,13.32,13.32,0,0,0,1-5.11,13.07,13.07,0,0,0-3.9-9.54Z">
            </path>
            <path class="cls-1"
                d="M70.3,16.65a21,21,0,0,0-17.06,8.76,21,21,0,0,0-38.11,12.3v20h8v-20a13.06,13.06,0,1,1,26.11,0v20h8v-20a13.06,13.06,0,1,1,26.11,0v20h8v-20A21.08,21.08,0,0,0,70.3,16.65Z">
            </path>
            <path class="cls-1 cls-3" d="M165.08,85a13.05,13.05,0,0,1-10.7-12.82h-8a21.07,21.07,0,0,0,18.7,20.91Z">
            </path>
            <path class="cls-1"
                d="M179.6,55.16a21,21,0,1,0-12.3,4h0a13,13,0,0,1,1.86,26v8a21,21,0,0,0,10.44-38ZM154.25,38.1A13.06,13.06,0,1,1,167.3,51.16,13.06,13.06,0,0,1,154.25,38.1Z">
            </path>
            <path class="cls-1"
                d="M225.42,55.16a21,21,0,1,0-12.3,4h0a13,13,0,0,1,2,25.93v8.07a21,21,0,0,0,10.26-38ZM200.06,38.1a13.06,13.06,0,1,1,13.06,13.06A13.07,13.07,0,0,1,200.06,38.1Z">
            </path>
            <path class="cls-1 cls-3" d="M211.08,85.07A13,13,0,0,1,200.2,72.22h-8a21.08,21.08,0,0,0,18.88,20.93Z">
            </path>
            <path class="cls-1"
                d="M260,24.65A13.07,13.07,0,0,1,273,36.06h8a21,21,0,1,0-22.82,22.61V50.61a13,13,0,0,1,1.85-26Z"></path>
            <path class="cls-1 cls-3"
                d="M272.85,40.14a13.09,13.09,0,0,1-10.59,10.42v8.08a21.08,21.08,0,0,0,18.67-18.5Z">
            </path>
        </g>
    </g>
</svg> 