<svg xmlns="http://www.w3.org/2000/svg" width="139.769" height="46.338" viewBox="0 0 139.769 46.338"><defs><style>.a,.b{fill:#fff;}.b{fill-rule:evenodd;}</style></defs><rect class="a" width="4.148" height="4.143"/><rect class="a" width="4.148" height="20.443" transform="translate(0 8.282)"/><path class="b" d="M119.15,37.065h-3.77v-1.7a10.082,10.082,0,0,1-2.984,1.676,10.943,10.943,0,0,1-3.686.6,10.828,10.828,0,0,1-4.1-.761A10.336,10.336,0,0,1,101.2,34.6a10.211,10.211,0,0,1-2.293-3.382,11.321,11.321,0,0,1,0-8.187,10.212,10.212,0,0,1,2.3-3.4,10.351,10.351,0,0,1,3.412-2.288,11.44,11.44,0,0,1,8.2,0,10.343,10.343,0,0,1,6.481,9.779v.552a2.686,2.686,0,0,1-.035.532v8.859Zm-5.77-14.7a6.556,6.556,0,0,0-2.134-1.492,6.73,6.73,0,0,0-5.054,0,6.876,6.876,0,0,0-4.074,6.237,6.63,6.63,0,0,0,.5,2.542,6.894,6.894,0,0,0,1.423,2.184,6.4,6.4,0,0,0,9.321,0,6.914,6.914,0,0,0,1.457-2.184,6.625,6.625,0,0,0,.5-2.542,6.5,6.5,0,0,0-1.94-4.745Z" transform="translate(-49.325 -8.335)"/><path class="a" d="M42.571,16.613a10.444,10.444,0,0,0-8.484,4.356,10.445,10.445,0,0,0-18.957,6.12v9.948h3.979V27.089a6.5,6.5,0,1,1,12.987,0v9.948h3.979V27.089a6.5,6.5,0,1,1,12.987,0v9.948h3.979V27.089A10.485,10.485,0,0,0,42.571,16.613Z" transform="translate(-7.604 -8.332)"/><path class="a" d="M155.681,78.557a6.491,6.491,0,0,1-5.322-6.377H146.38a10.48,10.48,0,0,0,9.3,10.4Z" transform="translate(-73.571 -36.278)"/><path class="a" d="M162.848,36.06a10.445,10.445,0,1,0-6.118,1.99h0a6.483,6.483,0,1,1,.925,12.932v3.979a10.445,10.445,0,0,0,5.193-18.9Zm-12.609-8.486a6.5,6.5,0,1,1,6.491,6.5A6.5,6.5,0,0,1,150.239,27.574Z" transform="translate(-73.515 -8.623)"/><path class="a" d="M208.668,36.06a10.445,10.445,0,1,0-6.118,1.99h0a6.468,6.468,0,1,1,.995,12.9v4.014a10.445,10.445,0,0,0,5.1-18.9Zm-12.614-8.486a6.5,6.5,0,1,1,6.5,6.5A6.5,6.5,0,0,1,196.054,27.574Z" transform="translate(-96.544 -8.623)"/><path class="a" d="M201.591,78.612a6.466,6.466,0,0,1-5.412-6.392H192.2a10.485,10.485,0,0,0,9.391,10.411Z" transform="translate(-96.6 -36.298)"/><path class="a" d="M249.48,20.682a6.5,6.5,0,0,1,6.466,5.675h3.979A10.445,10.445,0,1,0,248.574,37.6V33.594a6.483,6.483,0,0,1,.92-12.932Z" transform="translate(-120.156 -8.421)"/><path class="a" d="M267.527,40.14a6.511,6.511,0,0,1-5.267,5.183v4.019a10.485,10.485,0,0,0,9.286-9.2Z" transform="translate(-131.812 -20.174)"/></svg>